# xmcd CD database file
# Generated: Thu Aug 1 13:51:03 2002 by KSCD
# 
# Track frame offsets:
#       150
#       14580
#       35442
#       57477
#       74627
#       101567
#       116002
#       135770
#       151730
#       179090
#       198017
#       216512
#       237109
#       248555
#       274085
#       296222
#
# Disc length: 4297 seconds
#
# Revision: 8
# Processed by: cddbd v1.4PL0 Copyright (c) Steve Scherf et al.
# Submitted via: Kscd 1.3.0
#
DISCID=ee10c710
DTITLE=Liz Meyer and Mark Cosgrove - Regions of the Soul
DYEAR=1900
DGENRE=
TTITLE0=Gone
TTITLE1=All You've Got To Do Is Go
TTITLE2=Nothing But A Mighty Storm
TTITLE3=Barbed Wire
TTITLE4=If You Still Love Me Now
TTITLE5=Alabama Jubilee
TTITLE6=Regions of the Soul
TTITLE7=Bad Seed
TTITLE8=True Love
TTITLE9=Jamaica
TTITLE10=One-Way Rider
TTITLE11=Angel Of Paradise
TTITLE12=Gold Rush
TTITLE13=Sail on the Wild, Wild Wind
TTITLE14=It won't be long
TTITLE15=Cecil
EXTD=
EXTT0=
EXTT1=
EXTT2=
EXTT3=
EXTT4=
EXTT5=
EXTT6=
EXTT7=
EXTT8=
EXTT9=
EXTT10=
EXTT11=
EXTT12=
EXTT13=
EXTT14=
EXTT15=
PLAYORDER=
